<svg xmlns="http://www.w3.org/2000/svg" width="140" height="40" viewBox="0 0 140 40" role="img" aria-label="intvol logo">
  <defs>
    <linearGradient id="y" x1="0" x2="0" y1="0" y2="1">
      <stop offset="0%" stop-color="#facc15"/>
      <stop offset="100%" stop-color="#eab308"/>
    </linearGradient>
  </defs>
  <rect rx="8" ry="8" x="2" y="4" width="48" height="32" fill="url(#y)"/>
  <path d="M14 27v-2.6l8.2-10.4h3.6L18 24.4h8.4V27H14z" fill="#1a1500"/>
  <g fill="#f5f5f5">
    <path d="M60 26V14h3v12h-3zm-6.5-6c0-3.5 2.4-6.2 6-6.2 1.5 0 3 .5 4 1.4l-1.8 2.1c-.6-.5-1.3-.8-2.1-.8-1.9 0-3.1 1.5-3.1 3.5s1.2 3.5 3.1 3.5c.8 0 1.5-.3 2.1-.8l1.8 2.1c-1 .9-2.5 1.4-4 1.4-3.6 0-6-2.7-6-6.2z"/>
    <path d="M70 26V14h3v4.5c.7-.9 1.8-1.6 3.2-1.6 2.6 0 4.4 1.9 4.4 4.9V26h-3v-3.9c0-1.6-.9-2.6-2.3-2.6-1.5 0-2.3 1.1-2.3 2.6V26h-3zm17.4 0-4.7-12h3.3l3 8 3-8h3.2l-4.7 12h-3.1z"/>
    <path d="M101 20c0-3.7 2.7-6.2 6.2-6.2s6.2 2.5 6.2 6.2-2.7 6.2-6.2 6.2S101 23.7 101 20zm9.3 0c0-2-1.3-3.5-3.2-3.5s-3.2 1.5-3.2 3.5 1.3 3.5 3.2 3.5 3.2-1.5 3.2-3.5zM126 26V11h3v15h-3zm5.2 0V14h3v12h-3z"/>
  </g>
</svg>



